:FULLY-SPECIFIED
:FORCE-ALL-JOINTS-BE-3DOF
:DEGREES
204
root 4.89678 15.2178 -25.4613 6.48628 4.83676 5.47301
lfemur 5.89185 -10.3471 4.67044
ltibia 3.03118 0 0
lfoot -23.4141 -23.9515 0
ltoes 58.7448 0 0
rfemur -22.3689 -13.5388 -10.3819
rtibia 44.2704 0 0
rfoot -27.6697 7.20062 0
rtoes 55.0471 0 0
lowerback -3.94869 -2.41037 -1.30631
upperback -0.564216 -3.07297 -7.45619
thorax 1.28185 -1.53962 -7.17162
lowerneck -12.465 -1.29809 3.31026
upperneck 3.96747 -2.53889 4.17144
head 3.53931 -1.00754 0.615082
lclavicle 4.5726e-14 -3.59285e-15 0
lhumerus -55.5701 -42.7646 112.526
lradius 54.0434 0 0
lwrist 21.4565 0 0
lhand 42.6311 31.695 0
lfingers 7.12502 0 0
lthumb 64.7078 40.7828 0
rclavicle 4.5726e-14 -3.59285e-15 0
rhumerus -42.0558 38.0554 -49.6479
rradius 115.727 0 0
rwrist -19.239 0 0
rhand 14.3999 -13.9679 0
rfingers 7.12502 0 0
rthumb 39.0748 -402.853 0
205
root 4.87245 15.1927 -25.4733 6.54679 4.51207 5.45291
lfemur 5.82854 -9.83055 4.38681
ltibia 3.42199 0 0
lfoot -24.2427 -22.89 0
ltoes 58.0574 0 0
rfemur -23.1249 -14.0179 -10.1575
rtibia 44.9579 0 0
rfoot -27.4417 7.88653 0
rtoes 55.3675 0 0
lowerback -3.76167 -2.37244 -1.27786
upperback -0.570539 -3.03289 -7.42369
thorax 1.17768 -1.52096 -7.14303
lowerneck -12.3257 -1.16531 3.5469
upperneck 3.91526 -2.37815 4.03154
head 3.49544 -0.932919 0.538727
lclavicle 4.16279e-14 -2.12115e-15 0
lhumerus -55.8594 -42.992 112.832
lradius 54.092 0 0
lwrist 21.7707 0 0
lhand 42.2754 31.5343 0
lfingers 7.12502 0 0
lthumb 64.4076 40.9665 0
rclavicle 4.16279e-14 -2.12115e-15 0
rhumerus -39.5865 32.6848 -47.1692
rradius 112.181 0 0
rwrist -19.3851 0 0
rhand 8.87792 -17.8769 0
rfingers 7.12502 0 0
rthumb 33.7984 -418.835 0
206
root 4.84813 15.1676 -25.4852 6.63797 4.07255 5.40997
lfemur 5.72559 -9.18099 4.07421
ltibia 3.93618 0 0
lfoot -25.2853 -21.5793 0
ltoes 57.1274 0 0
rfemur -24.074 -14.6525 -9.85427
rtibia 45.7625 0 0
rfoot -27.2498 8.80949 0
rtoes 55.8022 0 0
lowerback -3.52903 -2.31824 -1.23407
upperback -0.579709 -2.97345 -7.37362
thorax 1.047 -1.49298 -7.1025
lowerneck -12.1582 -0.985005 3.84675
upperneck 3.84835 -2.15817 3.84631
head 3.44035 -0.830435 0.440248
lclavicle 3.6791e-14 -3.3674e-16 0
lhumerus -56.2286 -43.2686 113.225
lradius 54.1715 0 0
lwrist 22.169 0 0
lhand 41.7785 31.3059 0
lfingers 7.12502 0 0
lthumb 63.9844 41.1936 0
rclavicle 3.6791e-14 -3.3674e-16 0
rhumerus -36.4832 26.0365 -44.067
rradius 107.818 0 0
rwrist -19.6278 0 0
rhand 2.21707 -22.6826 0
rfingers 7.12502 0 0
rthumb 27.4285 -439.414 0
207
root 4.82381 15.1425 -25.4972 6.76408 3.49981 5.34216
lfemur 5.58502 -8.39343 3.7356
ltibia 4.57909 0 0
lfoot -26.5678 -20.0016 0
ltoes 55.9373 0 0
rfemur -25.2367 -15.4621 -9.46444
rtibia 46.6912 0 0
rfoot -27.1084 10.0033 0
rtoes 56.3669 0 0
lowerback -3.24724 -2.24533 -1.17306
upperback -0.592196 -2.89155 -7.30497
thorax 0.887497 -1.45419 -7.04985
lowerneck -11.9603 -0.750473 4.21763
upperneck 3.76566 -1.8706 3.61047
head 3.37305 -0.696093 0.317055
lclavicle 3.11775e-14 1.78998e-15 0
lhumerus -56.6876 -43.5995 113.712
lradius 54.2863 0 0
lwrist 22.6615 0 0
lhand 41.1251 31.0023 0
lfingers 7.12502 0 0
lthumb 63.425 41.4684 0
rclavicle 3.11775e-14 1.78998e-15 0
rhumerus -32.6776 17.99 -40.2696
rradius 102.561 0 0
rwrist -19.9822 0 0
rhand -5.68227 -28.4682 0
rfingers 7.12502 0 0
rthumb 19.8693 -465.081 0
208
root 4.79949 15.1175 -25.5091 6.92938 2.77546 5.24741
lfemur 5.40889 -7.46291 3.37394
ltibia 5.35605 0 0
lfoot -28.1163 -18.1386 0
ltoes 54.469 0 0
rfemur -26.6336 -16.4661 -8.98022
rtibia 47.7508 0 0
rfoot -27.0317 11.5019 0
rtoes 57.0774 0 0
lowerback -2.91272 -2.15122 -1.09296
upperback -0.608468 -2.78409 -7.21671
thorax 0.696849 -1.40308 -6.98494
lowerneck -11.7299 -0.455005 4.66736
upperneck 3.66607 -1.5071 3.31872
head 3.29257 -0.525895 0.166558
lclavicle 2.47494e-14 4.28865e-15 0
lhumerus -57.2463 -43.9901 114.303
lradius 54.4404 0 0
lwrist 23.2586 0 0
lhand 40.3001 30.6164 0
lfingers 7.12502 0 0
lthumb 62.7162 41.7949 0
rclavicle 2.47494e-14 4.28865e-15 0
rhumerus -28.1015 8.4249 -35.7054
rradius 96.3305 0 0
rwrist -20.4633 0 0
rhand -14.9198 -35.3169 0
rfingers 7.12502 0 0
rthumb 11.0248 -496.325 0
209
root 4.77516 15.0924 -25.5211 7.13815 1.8811 5.12367
lfemur 5.19923 -6.38448 2.9922
ltibia 6.27239 0 0
lfoot -29.9565 -15.9722 0
ltoes 52.705 0 0
rfemur -28.2853 -17.6842 -8.3938
rtibia 48.9484 0 0
rfoot -27.0341 13.3389 0
rtoes 57.9494 0 0
lowerback -2.52192 -2.03346 -0.991892
upperback -0.628995 -2.64799 -7.10781
thorax 0.472746 -1.33813 -6.90759
lowerneck -11.465 -0.0918935 5.20374
upperneck 3.54851 -1.05931 2.96577
head 3.19795 -0.315841 -0.013831
lclavicle 1.74689e-14 7.18888e-15 0
lhumerus -57.9145 -44.4455 115.007
lradius 54.638 0 0
lwrist 23.9705 0 0
lhand 39.2885 30.141 0
lfingers 7.12502 0 0
lthumb 61.8446 42.1773 0
rclavicle 1.74689e-14 7.18888e-15 0
rhumerus -22.6868 -2.77932 -30.3024
rradius 89.05 0 0
rwrist -21.0862 0 0
rhand -25.595 -43.3115 0
rfingers 7.12502 0 0
rthumb 0.799226 -533.639 0
210
root 4.75084 15.0673 -25.533 7.39463 0.798334 4.96888
lfemur 4.95808 -5.15318 2.59335
ltibia 7.33345 0 0
lfoot -32.1145 -13.4844 0
ltoes 50.6272 0 0
rfemur -30.2124 -19.1357 -7.69739
rtibia 50.291 0 0
rfoot -27.13 15.5483 0
rtoes 58.9985 0 0
lowerback -2.07128 -1.88957 -0.867981
upperback -0.654246 -2.48014 -6.97726
thorax 0.212871 -1.25785 -6.81763
lowerneck -11.1635 0.345571 5.83459
upperneck 3.41186 -0.518891 2.54632
head 3.0882 -0.061933 -0.226703
lclavicle 9.29798e-15 1.05203e-14 0
lhumerus -58.7021 -44.971 115.832
lradius 54.8834 0 0
lwrist 24.8075 0 0
lhand 38.0749 29.5687 0
lfingers 7.12502 0 0
lthumb 60.797 42.6198 0
rclavicle 9.29798e-15 1.05203e-14 0
rhumerus -16.3651 -15.7431 -23.989
rradius 80.6413 0 0
rwrist -21.8659 0 0
rhand -37.8076 -52.5353 0
rfingers 7.12502 0 0
rthumb -10.9034 -577.511 0
211
root 4.72652 15.0422 -25.545 7.70309 -0.491237 4.781
lfemur 4.68749 -3.76403 2.18034
ltibia 8.54457 0 0
lfoot -34.6162 -10.6571 0
ltoes 48.2181 0 0
rfemur -32.4355 -20.8402 -6.88321
rtibia 51.7854 0 0
rfoot -27.3336 18.1638 0
rtoes 60.2405 0 0
lowerback -1.55725 -1.71709 -0.719351
upperback -0.684689 -2.27746 -6.82404
thorax -0.0850889 -1.16073 -6.7149
lowerneck -10.8231 0.864097 6.56772
upperneck 3.25503 0.122515 2.05509
head 2.96236 0.239828 -0.474647
lclavicle 1.98785e-16 1.43125e-14 0
lhumerus -59.6189 -45.5717 116.787
lradius 55.1807 0 0
lwrist 25.7799 0 0
lhand 36.6442 28.8925 0
lfingers 7.12502 0 0
lthumb 59.5601 43.1265 0
rclavicle 1.98785e-16 1.43125e-14 0
rhumerus -9.06837 -30.5869 -16.6934
rradius 71.0267 0 0
rwrist -22.8175 0 0
rhand -51.6573 -63.0713 0
rfingers 7.12502 0 0
rthumb -24.1789 -628.433 0
212
root 4.74084 15.063 -25.5624 7.78709 -0.439321 4.57652
lfemur 4.00032 -2.9894 2.1287
ltibia 9.40691 0 0
lfoot -34.5457 -10.0666 0
ltoes 46.8119 0 0
rfemur -32.5648 -21.0469 -6.59421
rtibia 51.7154 0 0
rfoot -27.4902 18.2676 0
rtoes 60.4158 0 0
lowerback -1.45325 -1.70089 -0.651784
upperback -0.685204 -2.25781 -6.67066
thorax -0.138041 -1.15122 -6.58941
lowerneck -10.807 0.903945 6.55834
upperneck 3.19818 0.184295 1.97427
head 2.93851 0.266148 -0.495399
lclavicle -4.4859e-16 1.41988e-14 0
lhumerus -59.6285 -45.532 116.953
lradius 55.3008 0 0
lwrist 25.7709 0 0
lhand 36.1224 28.616 0
lfingers 7.12502 0 0
lthumb 59.0915 43.1607 0
rclavicle -4.4859e-16 1.41988e-14 0
rhumerus -8.66905 -31.7008 -16.7669
rradius 70.6881 0 0
rwrist -23.1417 0 0
rhand -51.4831 -63.6782 0
rfingers 7.12502 0 0
rthumb -24.0558 -635.889 0
